[Header]
FileType HTR
DataType HTRS
FileVersion 1
NumSegments 64
NumFrames 3
DataFrameRate 24
EulerRotationOrder ZYX
CalibrationUnits mm
RotationUnits Degrees
GlobalAxisofGravity Y
BoneLengthAxis Y
ScaleFactor 1.0
[SegmentNames&Hierarchy]
Hips	GLOBAL
Spine	Hips
Spine1	Spine
Spine2	Spine1
Neck	Spine2
Head	Neck
LeftEye	Head
RightEye	Head
LeftShoulder	Spine2
LeftArm	LeftShoulder
LeftForeArm	LeftArm
LeftHand	LeftForeArm
LeftHandThumb1	LeftHand
LeftHandThumb2	LeftHandThumb1
LeftHandThumb3	LeftHandThumb2
LeftHandThumb4	LeftHandThumb3
LeftHandIndex1	LeftHand
LeftHandIndex2	LeftHandIndex1
LeftHandIndex3	LeftHandIndex2
LeftHandIndex4	LeftHandIndex3
LeftHandMiddle1	LeftHand
LeftHandMiddle2	LeftHandMiddle1
LeftHandMiddle3	LeftHandMiddle2
LeftHandMiddle4	LeftHandMiddle3
LeftHandRing1	LeftHand
LeftHandRing2	LeftHandRing1
LeftHandRing3	LeftHandRing2
LeftHandRing4	LeftHandRing3
LeftHandPinky1	LeftHand
LeftHandPinky2	LeftHandPinky1
LeftHandPinky3	LeftHandPinky2
LeftHandPinky4	LeftHandPinky3
RightShoulder	Spine2
RightArm	RightShoulder
RightForeArm	RightArm
RightHand	RightForeArm
RightHandPinky1	RightHand
RightHandPinky2	RightHandPinky1
RightHandPinky3	RightHandPinky2
RightHandPinky4	RightHandPinky3
RightHandRing1	RightHand
RightHandRing2	RightHandRing1
RightHandRing3	RightHandRing2
RightHandRing4	RightHandRing3
RightHandMiddle1	RightHand
RightHandMiddle2	RightHandMiddle1
RightHandMiddle3	RightHandMiddle2
RightHandMiddle4	RightHandMiddle3
RightHandIndex1	RightHand
RightHandIndex2	RightHandIndex1
RightHandIndex3	RightHandIndex2
RightHandIndex4	RightHandIndex3
RightHandThumb1	RightHand
RightHandThumb2	RightHandThumb1
RightHandThumb3	RightHandThumb2
RightHandThumb4	RightHandThumb3
LeftUpLeg	Hips
LeftLeg	LeftUpLeg
LeftFoot	LeftLeg
LeftToeBase	LeftFoot
RightUpLeg	Hips
RightLeg	RightUpLeg
RightFoot	RightLeg
RightToeBase	RightFoot
[BasePosition]
Hips	0	0	0	0	0	0	1
Spine	0	0	0	0	0	0	1
Spine1	0	0	0	0	0	0	1
Spine2	0	0	0	0	0	0	1
Neck	0	0	0	0	0	0	1
Head	0	0	0	0	0	0	1
LeftEye	0	0	0	0	0	0	1
RightEye	0	0	0	0	0	0	1
LeftShoulder	0	0	0	0	0	0	1
LeftArm	0	0	0	0	0	0	1
LeftForeArm	0	0	0	0	0	0	1
LeftHand	0	0	0	0	0	0	1
LeftHandThumb1	0	0	0	0	0	0	1
LeftHandThumb2	0	0	0	0	0	0	1
LeftHandThumb3	0	0	0	0	0	0	1
LeftHandThumb4	0	0	0	0	0	0	1
LeftHandIndex1	0	0	0	0	0	0	1
LeftHandIndex2	0	0	0	0	0	0	1
LeftHandIndex3	0	0	0	0	0	0	1
LeftHandIndex4	0	0	0	0	0	0	1
LeftHandMiddle1	0	0	0	0	0	0	1
LeftHandMiddle2	0	0	0	0	0	0	1
LeftHandMiddle3	0	0	0	0	0	0	1
LeftHandMiddle4	0	0	0	0	0	0	1
LeftHandRing1	0	0	0	0	0	0	1
LeftHandRing2	0	0	0	0	0	0	1
LeftHandRing3	0	0	0	0	0	0	1
LeftHandRing4	0	0	0	0	0	0	1
LeftHandPinky1	0	0	0	0	0	0	1
LeftHandPinky2	0	0	0	0	0	0	1
LeftHandPinky3	0	0	0	0	0	0	1
LeftHandPinky4	0	0	0	0	0	0	1
RightShoulder	0	0	0	0	0	0	1
RightArm	0	0	0	0	0	0	1
RightForeArm	0	0	0	0	0	0	1
RightHand	0	0	0	0	0	0	1
RightHandPinky1	0	0	0	0	0	0	1
RightHandPinky2	0	0	0	0	0	0	1
RightHandPinky3	0	0	0	0	0	0	1
RightHandPinky4	0	0	0	0	0	0	1
RightHandRing1	0	0	0	0	0	0	1
RightHandRing2	0	0	0	0	0	0	1
RightHandRing3	0	0	0	0	0	0	1
RightHandRing4	0	0	0	0	0	0	1
RightHandMiddle1	0	0	0	0	0	0	1
RightHandMiddle2	0	0	0	0	0	0	1
RightHandMiddle3	0	0	0	0	0	0	1
RightHandMiddle4	0	0	0	0	0	0	1
RightHandIndex1	0	0	0	0	0	0	1
RightHandIndex2	0	0	0	0	0	0	1
RightHandIndex3	0	0	0	0	0	0	1
RightHandIndex4	0	0	0	0	0	0	1
RightHandThumb1	0	0	0	0	0	0	1
RightHandThumb2	0	0	0	0	0	0	1
RightHandThumb3	0	0	0	0	0	0	1
RightHandThumb4	0	0	0	0	0	0	1
LeftUpLeg	0	0	0	0	0	0	1
LeftLeg	0	0	0	0	0	0	1
LeftFoot	0	0	0	0	0	0	1
LeftToeBase	0	0	0	0	0	0	1
RightUpLeg	0	0	0	0	0	0	1
RightLeg	0	0	0	0	0	0	1
RightFoot	0	0	0	0	0	0	1
RightToeBase	0	0	0	0	0	0	1
[Hips]
12	89.3741684	758.7982788	-82.41104126	24.26073265	7.676225185	5.215914726	1.0
13	88.74840546	803.1308594	-70.14981079	21.09813309	7.627195835	3.519121408	1.0
14	88.68017578	867.6262207	-49.79484558	17.56815338	8.237580299	1.777493954	1.0
[Spine]
12	0	101.8159943	1.315000057	14.05889225	-0.80030334	-3.682934761	1.0
13	0	101.8159943	1.315000057	13.18249512	-0.7245916724	-3.282533646	1.0
14	0	101.8159943	1.315000057	11.86101723	-0.1291142106	-2.347655773	1.0
[Spine1]
12	0	100.8349991	-10.00800037	4.076227665	-0.8749576807	1.829327822	1.0
13	0	100.8349991	-10.00800037	3.82178688	-0.8101287484	1.998020053	1.0
14	0	100.8349991	-10.00800037	3.393093348	-0.6167982817	2.19275403	1.0
[Spine2]
12	0	91	-13.73399925	4.033067226	-0.5532886982	1.81473875	1.0
13	0	91	-13.73399925	3.782159567	-0.4822244942	1.980906963	1.0
14	0	91	-13.73399925	3.356114149	-0.2832567096	2.173257351	1.0
[Neck]
12	0	166.7169952	-25.16200066	-16.11170387	-1.274996161	-1.743847489	1.0
13	0	166.7169952	-25.16200066	-14.48814297	-1.078329444	-1.377983928	1.0
14	0	166.7169952	-25.16200066	-11.9863739	-1.162101507	-0.8882449865	1.0
[Head]
12	0	96.17900085	16.84999847	-39.69609451	-7.16617012	-6.969430447	1.0
13	0	96.17900085	16.84999847	-36.07220459	-6.204892635	-7.779465675	1.0
14	0	96.17900085	16.84999847	-30.9212532	-6.013082981	-8.155966759	1.0
[LeftEye]
12	30.6760006	64.09500122	92.83599854	0	0	0	1.0
13	30.6760006	64.09500122	92.83599854	0	0	0	1.0
14	30.6760006	64.09500122	92.83599854	0	0	0	1.0
[RightEye]
12	-30.6760006	64.09500122	92.83499908	0	0	0	1.0
13	-30.6760006	64.09500122	92.83499908	0	0	0	1.0
14	-30.6760006	64.09500122	92.83499908	0	0	0	1.0
[LeftShoulder]
12	45.70400238	109.4599991	-26.28000069	-0.5733853579	-21.87529564	3.889648438	1.0
13	45.70400238	109.4599991	-26.28000069	-3.006427288	-21.20381355	10.12390709	1.0
14	45.70400238	109.4599991	-26.28000069	-4.687794209	-19.59563065	16.97517014	1.0
[LeftArm]
12	105.923996	-5.24600029	-22.32099915	-11.35392761	-62.96286011	-25.07600594	1.0
13	105.923996	-5.24600029	-22.32099915	-20.84524918	-61.80817795	-15.39929008	1.0
14	105.923996	-5.24600029	-22.32099915	-26.16820717	-55.78852081	-12.10974693	1.0
[LeftForeArm]
12	278.414978	-0.0009999999311	0	2.706889006e-07	-22.33996201	-0.000215315682	1.0
13	278.414978	-0.0009999999311	0	-8.208200597e-06	-24.07928467	-0.000237913584	1.0
14	278.414978	-0.0009999999311	0	-4.739254564e-06	-28.16815758	-0.0002204834745	1.0
[LeftHand]
12	283.2879944	0	0	-3.302003622	-5.342449188	-2.360158443	1.0
13	283.2879944	0	0	-10.19420624	-9.910647392	-18.91285515	1.0
14	283.2879944	0	0	-15.66003799	-13.99632931	-30.88640213	1.0
[LeftHandThumb1]
12	24.6609993	-15.75	26.8239994	18.01774216	-3.970915079	10.21072197	1.0
13	24.6609993	-15.75	26.8239994	18.07864189	-3.902525902	10.23010445	1.0
14	24.6609993	-15.75	26.8239994	18.11120987	-3.852544785	10.23601151	1.0
[LeftHandThumb2]
12	32.29800034	-18.64699936	18.64699936	-0.5450277925	32.56036758	-2.905864477	1.0
13	32.29800034	-18.64699936	18.64699936	-0.4763967395	32.73335266	-2.865435839	1.0
14	32.29800034	-18.64699936	18.64699936	-0.4329935014	32.84231186	-2.839775562	1.0
[LeftHandThumb3]
12	26.52600098	-15.31499958	15.31499958	2.064179182	9.231237411	-0.04058792815	1.0
13	26.52600098	-15.31499958	15.31499958	2.083087206	9.300234795	-0.02330825478	1.0
14	26.52600098	-15.31499958	15.31499958	2.095009565	9.343677521	-0.0124265179	1.0
[LeftHandThumb4]
12	19.54599953	-11.28499985	11.28499985	0	0	0	1.0
13	19.54599953	-11.28499985	11.28499985	0	0	0	1.0
14	19.54599953	-11.28499985	11.28499985	0	0	0	1.0
[LeftHandIndex1]
12	91.09299469	-5.170999527	22.60099792	-1.142468452	5.390123367	-17.33062744	1.0
13	91.09299469	-5.170999527	22.60099792	-1.893612981	6.031802654	-24.7561264	1.0
14	91.09299469	-5.170999527	22.60099792	-2.656037092	6.512375355	-31.72476196	1.0
[LeftHandIndex2]
12	36.76399994	0	0	-1.152689338	3.574003696	-30.0288372	1.0
13	36.76399994	0	0	-1.651646972	4.136203766	-37.43977737	1.0
14	36.76399994	0	0	-2.181593418	4.600349903	-44.38893127	1.0
[LeftHandIndex3]
12	28.83100128	0	0	-0.3531954885	1.721099973	-19.60446167	1.0
13	28.83100128	0	0	-0.6467359066	2.402276754	-26.99344444	1.0
14	28.83100128	0	0	-0.9991671443	3.000985861	-33.91890335	1.0
[LeftHandIndex4]
12	23.92700005	0	0	0	0	0	1.0
13	23.92700005	0	0	0	0	0	1.0
14	23.92700005	0	0	0	0	0	1.0
[LeftHandMiddle1]
12	95.33399963	0	0	-2.726281881	9.239608765	-25.44885826	1.0
13	95.33399963	0	0	-3.730745554	9.571815491	-32.95127106	1.0
14	95.33399963	0	0	-4.703745842	9.728349686	-39.98717499	1.0
[LeftHandMiddle2]
12	36.98199844	0	0	-2.133205891	4.471123695	-42.91012955	1.0
13	36.98199844	0	0	-2.755430222	4.891505241	-50.34909058	1.0
14	36.98199844	0	0	-3.383346081	5.209223747	-57.32204056	1.0
[LeftHandMiddle3]
12	29.50900078	0	0	-0.4403832555	2.376997709	-21.70333099	1.0
13	29.50900078	0	0	-0.7684406638	3.033952713	-29.09747505	1.0
14	29.50900078	0	0	-1.150250554	3.606101036	-36.02868652	1.0
[LeftHandMiddle4]
12	28.3390007	0	0	0	0	0	1.0
13	28.3390007	0	0	0	0	0	1.0
14	28.3390007	0	0	0	0	0	1.0
[LeftHandRing1]
12	91.04499817	-0.4390000105	-18.65100098	-4.334551334	11.96940517	-36.58486176	1.0
13	91.04499817	-0.4390000105	-18.65100098	-5.386802673	12.00457859	-44.13208389	1.0
14	91.04499817	-0.4390000105	-18.65100098	-6.376799583	11.86552143	-51.19646072	1.0
[LeftHandRing2]
12	31.54000092	0	0	-1.836716771	4.74481535	-49.72266388	1.0
13	31.54000092	0	0	-2.412038088	5.204863548	-57.1846199	1.0
14	31.54000092	0	0	-3.00124073	5.564658165	-64.17923737	1.0
[LeftHandRing3]
12	29.37700081	0	0	-0.3887024224	2.793063641	-28.77520943	1.0
13	29.37700081	0	0	-0.7205753922	3.448152065	-36.1693306	1.0
14	29.37700081	0	0	-1.105751157	4.018142223	-43.10105133	1.0
[LeftHandRing4]
12	26.47500038	0	0	0	0	0	1.0
13	26.47500038	0	0	0	0	0	1.0
14	26.47500038	0	0	0	0	0	1.0
[LeftHandPinky1]
12	80.77799988	-4.887000084	-38.06099701	-7.978268623	16.08512688	-46.770298	1.0
13	80.77799988	-4.887000084	-38.06099701	-10.05246925	15.57533646	-54.46086884	1.0
14	80.77799988	-4.887000084	-38.06099701	-11.92581367	14.88309479	-61.61711502	1.0
[LeftHandPinky2]
12	36	0	0	-2.705415726	4.377765656	-55.14309311	1.0
13	36	0	0	-3.359337091	4.724598885	-62.57622147	1.0
14	36	0	0	-4.007936478	4.970337868	-69.54195404	1.0
[LeftHandPinky3]
12	21.14200211	0	0	-1.01870513	3.650823593	-29.9828701	1.0
13	21.14200211	0	0	-1.481176972	4.229142189	-37.39323425	1.0
14	21.14200211	0	0	-1.979005575	4.712430477	-44.34106827	1.0
[LeftHandPinky4]
12	19.75699997	0	0	0	0	0	1.0
13	19.75699997	0	0	0	0	0	1.0
14	19.75699997	0	0	0	0	0	1.0
[RightShoulder]
12	-45.70000076	109.4620056	-26.28000069	-0.5255975127	15.06276131	-12.55176926	1.0
13	-45.70000076	109.4620056	-26.28000069	-2.746871471	15.96696663	-16.19525719	1.0
14	-45.70000076	109.4620056	-26.28000069	-3.521321058	15.10912609	-19.58038139	1.0
[RightArm]
12	-105.9280014	-5.248000145	-22.32099915	-33.36724472	60.9360733	26.33001709	1.0
13	-105.9280014	-5.248000145	-22.32099915	-49.00754929	55.62178802	8.530631065	1.0
14	-105.9280014	-5.248000145	-22.32099915	-57.50123215	45.59522247	-0.2241071165	1.0
[RightForeArm]
12	-278.414978	0	0	-6.02130558e-06	27.01325035	-9.921763194e-06	1.0
13	-278.414978	0	0	4.768052804e-06	34.88619995	-7.834313692e-06	1.0
14	-278.414978	0	0	-7.775972335e-06	42.27157211	-5.157160558e-06	1.0
[RightHand]
12	-283.2879944	0	0.0009999999311	-0.4117119014	23.49991226	6.236421585	1.0
13	-283.2879944	0	0.0009999999311	-6.267717361	23.56072426	18.86338615	1.0
14	-283.2879944	0	0.0009999999311	-6.981184959	24.71344376	26.37168121	1.0
[RightHandPinky1]
12	-80.76699829	-4.885000229	-38.06000137	-9.822253227	-15.65446854	53.62334061	1.0
13	-80.76699829	-4.885000229	-38.06000137	-12.48372364	-14.62601948	63.8168602	1.0
14	-80.76699829	-4.885000229	-38.06000137	-13.00844479	-14.80671501	65.53672028	1.0
[RightHandPinky2]
12	-36	0	0.0009999999311	-3.288591146	-4.691589832	61.81518936	1.0
13	-36	0	0.0009999999311	-4.215383053	-5.029859066	71.73165894	1.0
14	-36	0	0.0009999999311	-4.362728119	-5.067526817	73.2587204	1.0
[RightHandPinky3]
12	-21.14200211	0	0	-1.686200261	-1.258058548	38.17135239	1.0
13	-21.14200211	0	0	-2.418972254	-1.917725563	48.03011703	1.0
14	-21.14200211	0	0	-2.544193983	-2.009618282	49.58205032	1.0
[RightHandPinky4]
12	-19.75699997	0	0	0	0	0	1.0
13	-19.75699997	0	0	0	0	0	1.0
14	-19.75699997	0	0	0	0	0	1.0
[RightHandRing1]
12	-91.03599548	-0.4390000105	-18.65100098	-5.264511585	-11.79537201	43.33348846	1.0
13	-91.03599548	-0.4390000105	-18.65100098	-6.674110889	-11.63575649	53.39004135	1.0
14	-91.03599548	-0.4390000105	-18.65100098	-6.923213482	-12.01284409	55.00816345	1.0
[RightHandRing2]
12	-31.54000092	0	0	-2.348913908	-5.159739971	56.40582275	1.0
13	-31.54000092	0	0	-3.193554401	-5.661392212	66.36696625	1.0
14	-31.54000092	0	0	-3.333755732	-5.726622105	67.93334198	1.0
[RightHandRing3]
12	-29.37700081	0	0	-0.6876242757	-1.403452635	33.85383606	1.0
13	-29.37700081	0	0	-1.222643733	-2.222569704	43.70573425	1.0
14	-29.37700081	0	0	-1.319288611	-2.342512608	45.2559433	1.0
[RightHandRing4]
12	-26.47500038	0	0	0	0	0	1.0
13	-26.47500038	0	0	0	0	0	1.0
14	-26.47500038	0	0	0	0	0	1.0
[RightHandMiddle1]
12	-95.32500458	0	0	-3.625423431	-9.710195541	32.16571808	1.0
13	-95.32500458	0	0	-5.013240814	-9.884985924	42.18876648	1.0
14	-95.32500458	0	0	-5.228509903	-9.500902176	43.75944519	1.0
[RightHandMiddle2]
12	-36.98199844	0	0	-2.687672138	-4.850828648	49.57208633	1.0
13	-36.98199844	0	0	-3.586701393	-5.29191494	59.50241089	1.0
14	-36.98199844	0	0	-3.734594345	-5.346916676	61.06549072	1.0
[RightHandMiddle3]
12	-29.50900078	0	0	-0.9275688529	-3.11999774	31.96548653	1.0
13	-29.50900078	0	0	-1.531126261	-3.890727997	41.84090042	1.0
14	-29.50900078	0	0	-1.63786912	-4.002053738	43.39575195	1.0
[RightHandMiddle4]
12	-28.3390007	0	0.0009999999311	0	0	0	1.0
13	-28.3390007	0	0.0009999999311	0	0	0	1.0
14	-28.3390007	0	0.0009999999311	0	0	0	1.0
[RightHandIndex1]
12	-91.08300018	-5.167999744	22.60099792	-1.814560652	-5.92505312	23.98018456	1.0
13	-91.08300018	-5.167999744	22.60099792	-2.904119492	-6.641059875	33.9030838	1.0
14	-91.08300018	-5.167999744	22.60099792	-3.07449317	-6.339279652	35.49084091	1.0
[RightHandIndex2]
12	-36.76399994	0	0	-1.595967293	-4.080043316	36.66488647	1.0
13	-36.76399994	0	0	-2.358054876	-4.731217861	46.56095505	1.0
14	-36.76399994	0	0	-2.487913609	-4.821361065	48.12026596	1.0
[RightHandIndex3]
12	-28.83100128	0	0	-0.8373576999	-1.649444938	29.89149284	1.0
13	-28.83100128	0	0	-1.402008057	-2.46076417	39.74992371	1.0
14	-28.83100128	0	0	-1.50325644	-2.579082489	41.30191803	1.0
[RightHandIndex4]
12	-23.92700005	0	0	0	0	0	1.0
13	-23.92700005	0	0	0	0	0	1.0
14	-23.92700005	0	0	0	0	0	1.0
[RightHandThumb1]
12	-24.64799881	-15.72700024	26.82600021	18.03469658	3.943048716	-10.21387386	1.0
13	-24.64799881	-15.72700024	26.82600021	18.11891937	3.837759018	-10.23693943	1.0
14	-24.64799881	-15.72700024	26.82600021	17.91331482	4.156591415	-10.19924927	1.0
[RightHandThumb2]
12	-32.29800034	-18.64699936	18.64699936	-0.5220422745	-32.61892319	2.893705368	1.0
13	-32.29800034	-18.64699936	18.64699936	-0.4217343032	-32.87118912	2.834448099	1.0
14	-32.29800034	-18.64699936	18.64699936	-0.6960117817	-32.17777252	2.995620489	1.0
[RightHandThumb3]
12	-26.52600098	-15.31399918	15.31399918	1.850076199	-8.401150703	0.8452564478	1.0
13	-26.52600098	-15.31399918	15.31399918	1.876161098	-8.502091408	0.820690155	1.0
14	-26.52600098	-15.31399918	15.31399918	1.804589629	-8.224648476	0.8880751729	1.0
[RightHandThumb4]
12	-19.54599953	-11.28499985	11.28499985	0	0	0	1.0
13	-19.54599953	-11.28499985	11.28499985	0	0	0	1.0
14	-19.54599953	-11.28499985	11.28499985	0	0	0	1.0
[LeftUpLeg]
12	82.07800293	-67.51699829	-15.99599934	-82.34111786	-7.649027348	-0.05451327935	1.0
13	82.07800293	-67.51699829	-15.99599934	-74.16454315	-6.886292458	0.1365978271	1.0
14	82.07800293	-67.51699829	-15.99599934	-67.50138855	-5.067481518	0.06675247848	1.0
[LeftLeg]
12	0	-443.7049866	2.845999956	84.14615631	-2.097231865	10.02261353	1.0
13	0	-443.7049866	2.845999956	77.62172699	-2.045264721	10.62483597	1.0
14	0	-443.7049866	2.845999956	74.99190521	-1.969542027	9.311590195	1.0
[LeftFoot]
12	0	-444.2789917	-29.8219986	-22.31812096	7.836077213	-6.698517323	1.0
13	0	-444.2789917	-29.8219986	-19.81521034	8.053326607	-6.480179787	1.0
14	0	-444.2789917	-29.8219986	-12.98557568	7.063185692	-5.072423935	1.0
[LeftToeBase]
12	0	-87.28699493	107.1060028	-4.182419777	-2.128294909e-06	2.187404817e-07	1.0
13	0	-87.28699493	107.1060028	-4.191598415	-7.188715244e-06	-2.692367843e-06	1.0
14	0	-87.28699493	107.1060028	-6.570862293	-4.296376574e-06	-1.369860314e-07	1.0
[RightUpLeg]
12	-82.07800293	-67.51699829	-15.99599934	-77.6237793	3.342351198	-6.490663528	1.0
13	-82.07800293	-67.51699829	-15.99599934	-69.301651	4.214853287	-4.109036446	1.0
14	-82.07800293	-67.51699829	-15.99599934	-57.65422821	3.068320274	-1.276507497	1.0
[RightLeg]
12	0	-443.7049866	2.861999989	92.2926712	0.09210617095	-4.031663418	1.0
13	0	-443.7049866	2.861999989	84.70785522	-0.1556087732	-4.261418343	1.0
14	0	-443.7049866	2.861999989	72.61695862	-1.416568756	-4.729939938	1.0
[RightFoot]
12	0	-444.2770081	-29.83799934	-29.00788689	-11.80587196	3.704991817	1.0
13	0	-444.2770081	-29.83799934	-26.20314217	-11.55994797	3.496963978	1.0
14	0	-444.2770081	-29.83799934	-21.34817123	-10.02098465	2.217090368	1.0
[RightToeBase]
12	0	-87.28699493	107.1060028	-9.759976387	1.295598508e-06	2.000239192e-06	1.0
13	0	-87.28699493	107.1060028	-10.49715424	-1.554798587e-06	-9.327493444e-07	1.0
14	0	-87.28699493	107.1060028	-12.0521183	2.568329762e-07	3.833122719e-06	1.0
[EndOfFile]
